<svg width="32" height="33" viewBox="0 0 32 33" fill="none" xmlns="http://www.w3.org/2000/svg">
<path d="M32 23.15V3.95C32 2.19 30.56 0.75 28.8 0.75H9.6C7.84 0.75 6.4 2.19 6.4 3.95V23.15C6.4 24.91 7.84 26.35 9.6 26.35H28.8C30.56 26.35 32 24.91 32 23.15ZM15.04 17.598L17.648 21.086L21.776 15.934C22.096 15.534 22.704 15.534 23.024 15.934L27.76 21.854C28.176 22.382 27.808 23.15 27.136 23.15H11.2C10.544 23.15 10.16 22.398 10.56 21.87L13.76 17.598C14.08 17.182 14.72 17.182 15.04 17.598ZM0 8.75V29.55C0 31.31 1.44 32.75 3.2 32.75H24C24.88 32.75 25.6 32.03 25.6 31.15C25.6 30.27 24.88 29.55 24 29.55H4.8C3.92 29.55 3.2 28.83 3.2 27.95V8.75C3.2 7.87 2.48 7.15 1.6 7.15C0.72 7.15 0 7.87 0 8.75Z" fill="white"/>
</svg>
