<svg width="32" height="33" viewBox="0 0 32 33" fill="none" xmlns="http://www.w3.org/2000/svg">
<path d="M20.7226 4.10674L11.8288 0.954926C11.0817 0.684771 10.2635 0.684771 9.5164 0.936916L2.41912 3.3503C0.978322 3.85459 0 5.22338 0 6.77227V28.1145C0 30.654 2.50806 32.383 4.83824 31.4645L10.05 29.4113C10.4414 29.2492 10.886 29.2492 11.2774 29.3933L20.1712 32.5451C20.9183 32.8152 21.7365 32.8152 22.4836 32.5631L29.5809 30.1497C31.0217 29.6634 32 28.2766 32 26.7277V5.38547C32 2.84601 29.4919 1.11702 27.1618 2.03555L21.95 4.08873C21.5586 4.23281 21.1317 4.25082 20.7226 4.10674ZM21.3452 29.1591L10.6726 25.3589V4.34087L21.3452 8.14105V29.1591Z" fill="white"/>
</svg>
