<svg width="30" height="29" viewBox="0 0 30 29" fill="none" xmlns="http://www.w3.org/2000/svg">
<path d="M0 5.5C0 2.73858 2.23858 0.5 5 0.5H25C27.7614 0.5 30 2.73858 30 5.5V23.5C30 26.2614 27.7614 28.5 25 28.5H5C2.23858 28.5 0 26.2614 0 23.5V5.5Z" fill="#E2EFF9"/>
<path d="M15 22.5C15 22.5 24 17.4875 24 11.4723C24 5.45722 17 4.95597 15 9.66221C13 4.95597 6 5.45722 6 11.4723C6 17.4875 15 22.5 15 22.5Z" fill="#6D8495"/>
<path d="M15 22.5L15.4866 23.3736C15.1841 23.5421 14.8159 23.5421 14.5134 23.3736L15 22.5ZM15 9.66221L15.9203 10.0533C15.7635 10.4225 15.4011 10.6622 15 10.6622C14.5989 10.6622 14.2365 10.4225 14.0797 10.0533L15 9.66221ZM25 11.4723C25 14.9457 22.4397 17.9617 20.1653 19.9884C18.9963 21.0302 17.8319 21.8728 16.9619 22.4542C16.526 22.7456 16.1615 22.973 15.9042 23.1286C15.7754 23.2064 15.6733 23.2664 15.6023 23.3076C15.5668 23.3281 15.539 23.344 15.5195 23.3551C15.5098 23.3606 15.5021 23.3649 15.4966 23.368C15.4939 23.3696 15.4916 23.3708 15.49 23.3717C15.4891 23.3722 15.4884 23.3726 15.4879 23.3729C15.4876 23.3731 15.4873 23.3733 15.4871 23.3733C15.4868 23.3735 15.4866 23.3736 15 22.5C14.5134 21.6264 14.5132 21.6265 14.5131 21.6265C14.5131 21.6265 14.513 21.6266 14.513 21.6266C14.5129 21.6266 14.5131 21.6266 14.5133 21.6264C14.5138 21.6261 14.5149 21.6256 14.5164 21.6247C14.5196 21.6229 14.5248 21.62 14.5321 21.6158C14.5467 21.6075 14.5695 21.5945 14.5999 21.5769C14.6607 21.5417 14.7519 21.4881 14.8693 21.4172C15.1041 21.2751 15.4428 21.0639 15.8506 20.7914C16.6681 20.245 17.7537 19.4585 18.8347 18.4953C21.0603 16.512 23 14.0141 23 11.4723H25ZM14.0797 9.27109C15.2609 6.49154 17.9532 5.20458 20.393 5.55704C21.6174 5.73392 22.7837 6.32554 23.641 7.34728C24.5011 8.37228 25 9.76915 25 11.4723H23C23 10.168 22.6239 9.24652 22.109 8.63285C21.5913 8.01592 20.8826 7.64854 20.107 7.53649C18.5468 7.3111 16.7391 8.12663 15.9203 10.0533L14.0797 9.27109ZM7 11.4723C7 14.0141 8.93969 16.512 11.1653 18.4953C12.2463 19.4585 13.3319 20.245 14.1494 20.7914C14.5572 21.0639 14.8959 21.2751 15.1307 21.4172C15.2481 21.4881 15.3393 21.5417 15.4001 21.5769C15.4305 21.5945 15.4533 21.6075 15.4679 21.6158C15.4752 21.62 15.4804 21.6229 15.4836 21.6247C15.4851 21.6256 15.4862 21.6261 15.4867 21.6264C15.4869 21.6266 15.4871 21.6266 15.487 21.6266C15.487 21.6266 15.4869 21.6265 15.4869 21.6265C15.4868 21.6265 15.4866 21.6264 15 22.5C14.5134 23.3736 14.5132 23.3735 14.5129 23.3733C14.5127 23.3733 14.5124 23.3731 14.5121 23.3729C14.5116 23.3726 14.5109 23.3722 14.51 23.3717C14.5084 23.3708 14.5061 23.3696 14.5034 23.368C14.4979 23.3649 14.4902 23.3606 14.4805 23.3551C14.461 23.344 14.4332 23.3281 14.3977 23.3076C14.3267 23.2664 14.2246 23.2064 14.0958 23.1286C13.8385 22.973 13.474 22.7456 13.0381 22.4542C12.1681 21.8728 11.0037 21.0302 9.83471 19.9884C7.56031 17.9617 5 14.9457 5 11.4723H7ZM14.0797 10.0533C13.2609 8.12663 11.4532 7.3111 9.89298 7.53649C9.11737 7.64854 8.40871 8.01592 7.89104 8.63285C7.37612 9.24652 7 10.168 7 11.4723H5C5 9.76915 5.49888 8.37228 6.35896 7.34728C7.21629 6.32554 8.38263 5.73392 9.60702 5.55704C12.0468 5.20458 14.7391 6.49154 15.9203 9.27109L14.0797 10.0533Z" fill="#6D8495"/>
</svg>
