<svg width="19" height="12" viewBox="0 0 19 12" fill="none" xmlns="http://www.w3.org/2000/svg">
<path d="M5.41433 11.1512C4.47433 11.1512 3.67433 10.9362 3.01433 10.5062C2.35433 10.0762 1.84933 9.46122 1.49933 8.66122C1.14933 7.85122 0.974334 6.88122 0.974334 5.75122C0.974334 4.62122 1.14933 3.65622 1.49933 2.85622C1.84933 2.04622 2.35433 1.42622 3.01433 0.99622C3.67433 0.56622 4.47433 0.35122 5.41433 0.35122C6.35433 0.35122 7.15433 0.56622 7.81433 0.99622C8.47433 1.42622 8.97933 2.04622 9.32933 2.85622C9.67933 3.65622 9.85433 4.62122 9.85433 5.75122C9.85433 6.88122 9.67933 7.85122 9.32933 8.66122C8.97933 9.46122 8.47433 10.0762 7.81433 10.5062C7.15433 10.9362 6.35433 11.1512 5.41433 11.1512ZM5.41433 8.97622C6.05433 8.97622 6.54433 8.69622 6.88433 8.13622C7.23433 7.57622 7.40933 6.78122 7.40933 5.75122C7.40933 4.68122 7.23433 3.86122 6.88433 3.29122C6.54433 2.72122 6.05433 2.43622 5.41433 2.43622C4.77433 2.43622 4.27933 2.72122 3.92933 3.29122C3.57933 3.86122 3.40433 4.68122 3.40433 5.75122C3.40433 6.78122 3.57933 7.57622 3.92933 8.13622C4.27933 8.69622 4.77433 8.97622 5.41433 8.97622ZM15.7475 11.0012L14.0525 8.43622L13.2725 7.35622L10.1225 3.03622H13.0175L14.6675 5.49622L15.4925 6.65122L18.6125 11.0012H15.7475ZM10.0475 11.0012L13.2575 6.54622L14.5475 8.09122L12.8975 11.0012H10.0475ZM15.3425 7.53622L14.0525 5.99122L15.6275 3.03622H18.4625L15.3425 7.53622Z" fill="#EA4444"/>
</svg>
