<svg width="12" height="12" viewBox="0 0 12 12" fill="none" xmlns="http://www.w3.org/2000/svg">
<path d="M0.902069 11.0012L5.05707 0.50122H7.23207L11.3571 11.0012H8.77707L6.78207 5.67622C6.71207 5.46622 6.63207 5.24122 6.54207 5.00122C6.46207 4.76122 6.38207 4.51122 6.30207 4.25122C6.22207 3.99122 6.14707 3.74122 6.07707 3.50122C6.00707 3.26122 5.94707 3.03622 5.89707 2.82622L6.33207 2.81122C6.27207 3.06122 6.20707 3.30622 6.13707 3.54622C6.06707 3.78622 5.99207 4.02622 5.91207 4.26622C5.83207 4.50622 5.74707 4.74622 5.65707 4.98622C5.57707 5.21622 5.49207 5.45622 5.40207 5.70622L3.42207 11.0012H0.902069ZM2.88207 8.99122L3.69207 7.04122H8.49207L9.30207 8.99122H2.88207Z" fill="#EA4444"/>
</svg>
