<svg width="30" height="30" viewBox="0 0 30 30" fill="none" xmlns="http://www.w3.org/2000/svg">
<rect width="30" height="30" rx="4.73684" fill="#1C66FB"/>
<path d="M13.6817 14.0855C13.9919 13.6084 14.147 13.0518 14.147 12.4157C14.147 10.7459 12.7513 9.47363 11.2005 9.47363H6.70336C6.47075 9.47363 6.31567 9.63266 6.31567 9.87121V19.9697C6.31567 20.2082 6.47075 20.3672 6.70336 20.3672H11.6658C13.5267 20.3672 15.0774 18.8564 15.0774 16.9481C15.0774 15.7553 14.5347 14.7216 13.6817 14.0855ZM8.25411 11.541H11.2005C11.7433 11.541 12.131 12.0181 12.131 12.4952C12.131 13.0518 11.6658 13.4494 11.2005 13.4494H8.25411V11.541ZM11.7433 18.3793H8.25411V15.5168H11.7433C12.5187 15.5168 13.139 16.1529 13.139 16.9481C13.139 17.7432 12.5187 18.3793 11.7433 18.3793Z" fill="white"/>
<path d="M23.6841 16.2324C23.6841 13.847 21.9007 11.9386 19.6521 11.9386C17.4036 11.9386 15.6202 13.847 15.6202 16.2324C15.6202 18.6179 17.4036 20.5263 19.6521 20.5263C20.9703 20.5263 22.2109 19.8106 22.9863 18.6179C23.0638 18.4589 23.1413 18.2998 23.2189 18.1408C23.2964 18.0613 23.2189 17.9023 23.0638 17.9023H21.1254C21.0478 17.9023 21.0478 17.9023 20.9703 17.9818C20.5826 18.3794 20.1174 18.5384 19.6521 18.5384C18.6442 18.5384 17.8688 17.8227 17.6362 16.789H23.2964C23.529 16.789 23.6841 16.63 23.6841 16.3915V16.2324ZM19.6521 14.006C20.35 14.006 20.9703 14.4036 21.358 15.0397H17.9463C18.2565 14.4036 18.9543 14.006 19.6521 14.006Z" fill="white"/>
<path d="M21.2804 11.4615H17.7137C17.5586 11.4615 17.4036 11.3025 17.4036 11.1435V10.2688C17.4036 10.1098 17.5586 9.95074 17.7137 9.95074H21.2804C21.4355 9.95074 21.5906 10.1098 21.5906 10.2688V11.223C21.5906 11.3025 21.513 11.4615 21.2804 11.4615Z" fill="white"/>
</svg>
