<svg width="45" height="41" viewBox="0 0 45 41" fill="none" xmlns="http://www.w3.org/2000/svg">
<path d="M20.112 39.8536L17.1429 37.1085C12.5117 32.8135 8.49673 28.7145 5.09804 24.8116C1.69935 20.9087 0 16.8284 0 12.5707C0 9.20938 1.12979 6.39893 3.38936 4.13936C5.64893 1.87978 8.44071 0.75 11.7647 0.75C13.6695 0.75 15.5556 1.20752 17.423 2.12255C19.2904 3.03758 20.9524 4.54085 22.409 6.63235C24.0523 4.54085 25.7516 3.03758 27.507 2.12255C29.2624 1.20752 31.1111 0.75 33.0532 0.75C36.3772 0.75 39.169 1.87978 41.4286 4.13936C43.6881 6.39893 44.8179 9.20938 44.8179 12.5707C44.8179 16.8284 43.1186 20.9087 39.7199 24.8116C36.3212 28.7145 32.3063 32.8135 27.6751 37.1085L24.7059 39.8536C24.071 40.4512 23.3053 40.75 22.409 40.75C21.5126 40.75 20.747 40.4512 20.112 39.8536Z" fill="#317EF7"/>
</svg>
