<svg width="22" height="21" viewBox="0 0 22 21" fill="none" xmlns="http://www.w3.org/2000/svg">
<path d="M6.99628 16.25C5.89628 16.25 5.00628 17.15 5.00628 18.25C5.00628 19.35 5.89628 20.25 6.99628 20.25C8.09628 20.25 8.99628 19.35 8.99628 18.25C8.99628 17.15 8.09628 16.25 6.99628 16.25ZM0.996284 1.25C0.996284 1.8 1.44628 2.25 1.99628 2.25H2.99628L6.59628 9.84L5.24628 12.28C4.51628 13.62 5.47628 15.25 6.99628 15.25H17.9963C18.5463 15.25 18.9963 14.8 18.9963 14.25C18.9963 13.7 18.5463 13.25 17.9963 13.25H6.99628L8.09628 11.25H15.5463C16.2963 11.25 16.9563 10.84 17.2963 10.22L20.8763 3.73C21.2463 3.07 20.7663 2.25 20.0063 2.25H5.20628L4.53628 0.82C4.37628 0.47 4.01628 0.25 3.63628 0.25H1.99628C1.44628 0.25 0.996284 0.7 0.996284 1.25ZM16.9963 16.25C15.8963 16.25 15.0063 17.15 15.0063 18.25C15.0063 19.35 15.8963 20.25 16.9963 20.25C18.0963 20.25 18.9963 19.35 18.9963 18.25C18.9963 17.15 18.0963 16.25 16.9963 16.25Z" fill="#002053"/>
</svg>
