<svg width="25" height="25" viewBox="0 0 25 25" fill="none" xmlns="http://www.w3.org/2000/svg">
<path d="M23.273 13.9643H14.7015V22.5357C14.7015 23.4786 13.9301 24.25 12.9872 24.25C12.0444 24.25 11.273 23.4786 11.273 22.5357V13.9643H2.70152C1.75866 13.9643 0.987236 13.1929 0.987236 12.25C0.987236 11.3071 1.75866 10.5357 2.70152 10.5357H11.273V1.96429C11.273 1.02143 12.0444 0.25 12.9872 0.25C13.9301 0.25 14.7015 1.02143 14.7015 1.96429V10.5357H23.273C24.2158 10.5357 24.9872 11.3071 24.9872 12.25C24.9872 13.1929 24.2158 13.9643 23.273 13.9643Z" fill="#002053"/>
</svg>
