<svg width="30" height="30" viewBox="0 0 30 30" fill="none" xmlns="http://www.w3.org/2000/svg">
<rect width="30" height="30" rx="4.73684" fill="#EA4C89"/>
<path d="M14.6842 6.5C9.89053 6.5 6 10.3905 6 15.1842C6 19.9779 9.89053 23.8684 14.6842 23.8684C19.4605 23.8684 23.3684 19.9779 23.3684 15.1842C23.3684 10.3905 19.4605 6.5 14.6842 6.5ZM20.4158 10.4947C21.4579 11.7626 22.0658 13.3605 22.1005 15.1147C21.8574 15.0626 19.4084 14.5763 16.9421 14.8716C16.89 14.75 16.8379 14.6111 16.7858 14.4895C16.6295 14.1247 16.4732 13.76 16.2995 13.4126C19.0089 12.3184 20.2595 10.7032 20.4158 10.4947ZM14.6842 7.78526C16.56 7.78526 18.2968 8.49737 19.5995 9.64368C19.4605 9.83474 18.3489 11.3284 15.7089 12.3184C14.4932 10.0779 13.1384 8.25421 12.9474 7.97632C13.5032 7.85474 14.0763 7.78526 14.6842 7.78526ZM11.5232 8.48C11.7142 8.74053 13.0342 10.5816 14.2674 12.77C10.7937 13.6905 7.73684 13.6732 7.40684 13.6732C7.91053 11.3632 9.45632 9.45263 11.5232 8.48ZM7.26789 15.2016C7.26789 15.1321 7.26789 15.0453 7.26789 14.9758C7.58053 14.9932 11.1932 15.0279 14.8926 13.9163C15.1011 14.3332 15.3095 14.75 15.5005 15.1842C15.4137 15.2189 15.3095 15.2363 15.2053 15.2711C11.3842 16.5042 9.35211 19.8737 9.17842 20.1516C7.98 18.8316 7.26789 17.0947 7.26789 15.2016ZM14.6842 22.6005C12.9647 22.6005 11.3842 22.01 10.1337 21.0374C10.2726 20.7595 11.7663 17.8589 15.9521 16.4C15.9695 16.3826 15.9868 16.3826 16.0042 16.3826C17.0463 19.0921 17.4805 21.35 17.5847 22.01C16.6989 22.3921 15.7089 22.6005 14.6842 22.6005ZM18.8179 21.3326C18.7484 20.8811 18.3489 18.71 17.3763 16.0526C19.7037 15.6879 21.7358 16.2958 21.9963 16.3653C21.6663 18.4321 20.4853 20.2211 18.8179 21.3326Z" fill="white"/>
</svg>
