<svg width="20" height="18" viewBox="0 0 20 18" fill="none" xmlns="http://www.w3.org/2000/svg">
<path d="M10 17C10 17 19 11.9875 19 5.97234C19 -0.0427766 12 -0.544034 10 4.16221C8 -0.544034 1 -0.0427766 1 5.97234C1 11.9875 10 17 10 17Z" fill="#6D8495"/>
<path d="M10 17L10.4866 17.8736C10.1841 18.0421 9.81593 18.0421 9.51343 17.8736L10 17ZM10 4.16221L10.9203 4.55332C10.7635 4.9225 10.4011 5.16221 10 5.16221C9.59886 5.16221 9.23655 4.9225 9.07966 4.55332L10 4.16221ZM20 5.97234C20 9.44565 17.4397 12.4617 15.1653 14.4884C13.9963 15.5302 12.8319 16.3728 11.9619 16.9542C11.526 17.2456 11.1615 17.473 10.9042 17.6286C10.7754 17.7064 10.6733 17.7664 10.6023 17.8076C10.5668 17.8281 10.539 17.844 10.5195 17.8551C10.5098 17.8606 10.5021 17.8649 10.4966 17.868C10.4939 17.8696 10.4916 17.8708 10.49 17.8717C10.4891 17.8722 10.4884 17.8726 10.4879 17.8729C10.4876 17.8731 10.4873 17.8733 10.4871 17.8733C10.4868 17.8735 10.4866 17.8736 10 17C9.51343 16.1264 9.51324 16.1265 9.51309 16.1265C9.51309 16.1265 9.51297 16.1266 9.51296 16.1266C9.51295 16.1266 9.51306 16.1266 9.51331 16.1264C9.51382 16.1261 9.51486 16.1256 9.51643 16.1247C9.51956 16.1229 9.52481 16.12 9.53211 16.1158C9.5467 16.1075 9.56946 16.0945 9.59986 16.0769C9.66066 16.0417 9.75191 15.9881 9.86928 15.9172C10.1041 15.7751 10.4428 15.5639 10.8506 15.2914C11.6681 14.745 12.7537 13.9585 13.8347 12.9953C16.0603 11.012 18 8.51414 18 5.97234H20ZM9.07966 3.77109C10.2609 0.991541 12.9532 -0.295418 15.393 0.0570382C16.6174 0.233916 17.7837 0.825536 18.641 1.84728C19.5011 2.87228 20 4.26915 20 5.97234H18C18 4.66797 17.6239 3.74652 17.109 3.13285C16.5913 2.51592 15.8826 2.14854 15.107 2.03649C13.5468 1.8111 11.7391 2.62663 10.9203 4.55332L9.07966 3.77109ZM2 5.97234C2 8.51414 3.93969 11.012 6.16529 12.9953C7.24627 13.9585 8.33187 14.745 9.14941 15.2914C9.55721 15.5639 9.89588 15.7751 10.1307 15.9172C10.2481 15.9881 10.3393 16.0417 10.4001 16.0769C10.4305 16.0945 10.4533 16.1075 10.4679 16.1158C10.4752 16.12 10.4804 16.1229 10.4836 16.1247C10.4851 16.1256 10.4862 16.1261 10.4867 16.1264C10.4869 16.1266 10.4871 16.1266 10.487 16.1266C10.487 16.1266 10.4869 16.1265 10.4869 16.1265C10.4868 16.1265 10.4866 16.1264 10 17C9.51343 17.8736 9.51317 17.8735 9.51289 17.8733C9.51275 17.8733 9.51243 17.8731 9.51214 17.8729C9.51158 17.8726 9.51087 17.8722 9.51004 17.8717C9.50836 17.8708 9.50614 17.8696 9.50338 17.868C9.49786 17.8649 9.4902 17.8606 9.48047 17.8551C9.461 17.844 9.43323 17.8281 9.39771 17.8076C9.32667 17.7664 9.22457 17.7064 9.09584 17.6286C8.83849 17.473 8.47404 17.2456 8.03809 16.9542C7.16813 16.3728 6.00373 15.5302 4.83471 14.4884C2.56031 12.4617 0 9.44565 0 5.97234H2ZM9.07966 4.55332C8.26088 2.62663 6.45319 1.8111 4.89298 2.03649C4.11737 2.14854 3.40871 2.51592 2.89104 3.13285C2.37612 3.74652 2 4.66797 2 5.97234H0C0 4.26915 0.498878 2.87228 1.35896 1.84728C2.21629 0.825536 3.38263 0.233916 4.60702 0.0570382C7.04681 -0.295418 9.73912 0.991541 10.9203 3.77109L9.07966 4.55332Z" fill="#6D8495"/>
</svg>
