<svg width="29" height="20" viewBox="0 0 29 20" fill="none" xmlns="http://www.w3.org/2000/svg">
<path d="M0.966184 20C0.687064 20 0.456253 19.9088 0.273752 19.7262C0.0912507 19.5437 0 19.3129 0 19.0338V16.9726C0 16.2211 0.193237 15.5395 0.57971 14.9275C0.966184 14.3156 1.50295 13.8594 2.19002 13.5588C3.75738 12.8717 5.16908 12.3779 6.42512 12.0773C7.68116 11.7767 8.97477 11.6264 10.306 11.6264C11.6371 11.6264 12.9254 11.7767 14.1707 12.0773C15.416 12.3779 16.8223 12.8717 18.3897 13.5588C19.0768 13.8594 19.6189 14.3156 20.0161 14.9275C20.4133 15.5395 20.6119 16.2211 20.6119 16.9726V19.0338C20.6119 19.3129 20.5207 19.5437 20.3382 19.7262C20.1557 19.9088 19.9249 20 19.6457 20H0.966184ZM21.8357 20C22.0505 19.9571 22.2222 19.8443 22.351 19.6618C22.4799 19.4793 22.5443 19.2485 22.5443 18.9694V16.9726C22.5443 15.62 22.2008 14.5089 21.5137 13.6393C20.8266 12.7697 19.9249 12.0666 18.8084 11.5298C20.2899 11.7016 21.6855 11.9538 22.9952 12.2866C24.3049 12.6194 25.3677 13.0005 26.1836 13.43C26.8921 13.8379 27.4503 14.3425 27.8583 14.9436C28.2662 15.5448 28.4702 16.2211 28.4702 16.9726V19.0338C28.4702 19.3129 28.379 19.5437 28.1965 19.7262C28.014 19.9088 27.7831 20 27.504 20H21.8357ZM10.306 9.66184C8.88889 9.66184 7.72947 9.21095 6.8277 8.30918C5.92593 7.40741 5.47504 6.24799 5.47504 4.83092C5.47504 3.41385 5.92593 2.25443 6.8277 1.35266C7.72947 0.450886 8.88889 0 10.306 0C11.723 0 12.8824 0.450886 13.7842 1.35266C14.686 2.25443 15.1369 3.41385 15.1369 4.83092C15.1369 6.24799 14.686 7.40741 13.7842 8.30918C12.8824 9.21095 11.723 9.66184 10.306 9.66184ZM21.9002 4.83092C21.9002 6.24799 21.4493 7.40741 20.5475 8.30918C19.6457 9.21095 18.4863 9.66184 17.0692 9.66184C16.8331 9.66184 16.57 9.64573 16.2802 9.61353C15.9903 9.58132 15.7273 9.52228 15.4911 9.43639C16.0064 8.89962 16.3983 8.2394 16.6667 7.45572C16.9351 6.67203 17.0692 5.7971 17.0692 4.83092C17.0692 3.86474 16.9351 3.01127 16.6667 2.27053C16.3983 1.52979 16.0064 0.848095 15.4911 0.225443C15.7273 0.161031 15.9903 0.107354 16.2802 0.0644125C16.57 0.021471 16.8331 0 17.0692 0C18.4863 0 19.6457 0.450886 20.5475 1.35266C21.4493 2.25443 21.9002 3.41385 21.9002 4.83092Z" fill="#317EF7"/>
</svg>
