<svg width="33" height="33" viewBox="0 0 33 33" fill="none" xmlns="http://www.w3.org/2000/svg">
<path d="M30.6973 19.0357H19.2687V30.4643C19.2687 31.7214 18.2401 32.75 16.983 32.75C15.7258 32.75 14.6973 31.7214 14.6973 30.4643V19.0357H3.26869C2.01154 19.0357 0.982971 18.0071 0.982971 16.75C0.982971 15.4929 2.01154 14.4643 3.26869 14.4643H14.6973V3.03571C14.6973 1.77857 15.7258 0.75 16.983 0.75C18.2401 0.75 19.2687 1.77857 19.2687 3.03571V14.4643H30.6973C31.9544 14.4643 32.983 15.4929 32.983 16.75C32.983 18.0071 31.9544 19.0357 30.6973 19.0357Z" fill="white"/>
</svg>
