<svg width="19" height="18" viewBox="0 0 19 18" fill="none" xmlns="http://www.w3.org/2000/svg">
<path d="M9.57899 1.88535C11.8808 1.88535 12.1947 1.88535 13.1364 1.88535C13.9734 1.88535 14.3919 2.09461 14.7058 2.19924C15.1243 2.4085 15.4382 2.51313 15.7521 2.82702C16.066 3.1409 16.2752 3.45479 16.3799 3.87331C16.4845 4.18719 16.5891 4.60571 16.6938 5.44274C16.6938 6.3844 16.6938 6.59366 16.6938 9.00013C16.6938 11.4066 16.6938 11.6159 16.6938 12.5575C16.6938 13.3945 16.4845 13.8131 16.3799 14.127C16.1706 14.5455 16.066 14.8594 15.7521 15.1732C15.4382 15.4871 15.1243 15.6964 14.7058 15.801C14.3919 15.9056 13.9734 16.0103 13.1364 16.1149C12.1947 16.1149 11.9855 16.1149 9.57899 16.1149C7.17252 16.1149 6.96326 16.1149 6.0216 16.1149C5.18457 16.1149 4.76605 15.9056 4.45216 15.801C4.03365 15.5918 3.71976 15.4871 3.40587 15.1732C3.09199 14.8594 2.88273 14.5455 2.7781 14.127C2.67347 13.8131 2.56884 13.3945 2.46421 12.5575C2.46421 11.6159 2.46421 11.4066 2.46421 9.00013C2.46421 6.59366 2.46421 6.3844 2.46421 5.44274C2.46421 4.60571 2.67347 4.18719 2.7781 3.87331C2.98736 3.45479 3.09199 3.1409 3.40587 2.82702C3.71976 2.51313 4.03365 2.30387 4.45216 2.19924C4.76605 2.09461 5.18457 1.98998 6.0216 1.88535C6.96326 1.88535 7.27715 1.88535 9.57899 1.88535ZM9.57899 0.315918C7.17252 0.315918 6.96326 0.315918 6.0216 0.315918C5.07994 0.315918 4.45216 0.525177 3.92902 0.734435C3.40587 0.943693 2.88273 1.25758 2.35958 1.78073C1.83644 2.30387 1.62718 2.72239 1.31329 3.35016C1.10403 3.87331 0.999404 4.50108 0.894775 5.44274C0.894775 6.3844 0.894775 6.69829 0.894775 9.00013C0.894775 11.4066 0.894775 11.6159 0.894775 12.5575C0.894775 13.4992 1.10403 14.127 1.31329 14.6501C1.52255 15.1732 1.83644 15.6964 2.35958 16.2195C2.88273 16.7427 3.30124 16.9519 3.92902 17.2658C4.45216 17.4751 5.07994 17.5797 6.0216 17.6843C6.96326 17.6843 7.27715 17.6843 9.57899 17.6843C11.8808 17.6843 12.1947 17.6843 13.1364 17.6843C14.078 17.6843 14.7058 17.4751 15.229 17.2658C15.7521 17.0566 16.2752 16.7427 16.7984 16.2195C17.3215 15.6964 17.5308 15.2779 17.8447 14.6501C18.0539 14.127 18.1586 13.4992 18.2632 12.5575C18.2632 11.6159 18.2632 11.302 18.2632 9.00013C18.2632 6.69829 18.2632 6.3844 18.2632 5.44274C18.2632 4.50108 18.0539 3.87331 17.8447 3.35016C17.6354 2.82702 17.3215 2.30387 16.7984 1.78073C16.2752 1.25758 15.8567 1.04832 15.229 0.734435C14.7058 0.525177 14.078 0.420547 13.1364 0.315918C12.1947 0.315918 11.9855 0.315918 9.57899 0.315918Z" fill="white"/>
<path d="M9.57899 4.50108C7.06789 4.50108 5.07994 6.48903 5.07994 9.00013C5.07994 11.5112 7.06789 13.4992 9.57899 13.4992C12.0901 13.4992 14.078 11.5112 14.078 9.00013C14.078 6.48903 12.0901 4.50108 9.57899 4.50108ZM9.57899 11.9297C8.00955 11.9297 6.64937 10.6742 6.64937 9.00013C6.64937 7.43069 7.90492 6.07052 9.57899 6.07052C11.1484 6.07052 12.5086 7.32606 12.5086 9.00013C12.5086 10.5696 11.1484 11.9297 9.57899 11.9297Z" fill="white"/>
<path d="M14.1827 5.44274C14.7605 5.44274 15.229 4.9743 15.229 4.39645C15.229 3.8186 14.7605 3.35016 14.1827 3.35016C13.6048 3.35016 13.1364 3.8186 13.1364 4.39645C13.1364 4.9743 13.6048 5.44274 14.1827 5.44274Z" fill="white"/>
</svg>
