<svg width="30" height="30" viewBox="0 0 30 30" fill="none" xmlns="http://www.w3.org/2000/svg">
<rect width="30" height="30" rx="4.73684" fill="#C4C4C4"/>
<rect width="30" height="30" rx="4.73684" fill="url(#paint0_radial_64_8850)"/>
<path d="M14.9999 7.88535C17.3017 7.88535 17.6156 7.88535 18.5573 7.88535C19.3943 7.88535 19.8128 8.09461 20.1267 8.19924C20.5452 8.4085 20.8591 8.51313 21.173 8.82702C21.4869 9.1409 21.6961 9.45479 21.8008 9.87331C21.9054 10.1872 22.01 10.6057 22.1147 11.4427C22.1147 12.3844 22.1147 12.5937 22.1147 15.0001C22.1147 17.4066 22.1147 17.6159 22.1147 18.5575C22.1147 19.3945 21.9054 19.8131 21.8008 20.127C21.5915 20.5455 21.4869 20.8594 21.173 21.1732C20.8591 21.4871 20.5452 21.6964 20.1267 21.801C19.8128 21.9056 19.3943 22.0103 18.5573 22.1149C17.6156 22.1149 17.4064 22.1149 14.9999 22.1149C12.5934 22.1149 12.3842 22.1149 11.4425 22.1149C10.6055 22.1149 10.1869 21.9056 9.87306 21.801C9.45455 21.5918 9.14066 21.4871 8.82677 21.1732C8.51288 20.8594 8.30363 20.5455 8.199 20.127C8.09437 19.8131 7.98974 19.3945 7.88511 18.5575C7.88511 17.6159 7.88511 17.4066 7.88511 15.0001C7.88511 12.5937 7.88511 12.3844 7.88511 11.4427C7.88511 10.6057 8.09437 10.1872 8.199 9.87331C8.40826 9.45479 8.51288 9.1409 8.82677 8.82702C9.14066 8.51313 9.45455 8.30387 9.87306 8.19924C10.1869 8.09461 10.6055 7.98998 11.4425 7.88535C12.3842 7.88535 12.698 7.88535 14.9999 7.88535ZM14.9999 6.31592C12.5934 6.31592 12.3842 6.31592 11.4425 6.31592C10.5008 6.31592 9.87306 6.52518 9.34992 6.73443C8.82677 6.94369 8.30363 7.25758 7.78048 7.78073C7.25734 8.30387 7.04808 8.72239 6.73419 9.35016C6.52493 9.87331 6.4203 10.5011 6.31567 11.4427C6.31567 12.3844 6.31567 12.6983 6.31567 15.0001C6.31567 17.4066 6.31567 17.6159 6.31567 18.5575C6.31567 19.4992 6.52493 20.127 6.73419 20.6501C6.94345 21.1732 7.25734 21.6964 7.78048 22.2195C8.30363 22.7427 8.72214 22.9519 9.34992 23.2658C9.87306 23.4751 10.5008 23.5797 11.4425 23.6843C12.3842 23.6843 12.698 23.6843 14.9999 23.6843C17.3017 23.6843 17.6156 23.6843 18.5573 23.6843C19.4989 23.6843 20.1267 23.4751 20.6499 23.2658C21.173 23.0566 21.6961 22.7427 22.2193 22.2195C22.7424 21.6964 22.9517 21.2779 23.2656 20.6501C23.4748 20.127 23.5795 19.4992 23.6841 18.5575C23.6841 17.6159 23.6841 17.302 23.6841 15.0001C23.6841 12.6983 23.6841 12.3844 23.6841 11.4427C23.6841 10.5011 23.4748 9.87331 23.2656 9.35016C23.0563 8.82702 22.7424 8.30387 22.2193 7.78073C21.6961 7.25758 21.2776 7.04832 20.6499 6.73443C20.1267 6.52518 19.4989 6.42055 18.5573 6.31592C17.6156 6.31592 17.4064 6.31592 14.9999 6.31592Z" fill="white"/>
<path d="M14.9999 10.5011C12.4888 10.5011 10.5008 12.489 10.5008 15.0001C10.5008 17.5112 12.4888 19.4992 14.9999 19.4992C17.511 19.4992 19.4989 17.5112 19.4989 15.0001C19.4989 12.489 17.511 10.5011 14.9999 10.5011ZM14.9999 17.9297C13.4304 17.9297 12.0703 16.6742 12.0703 15.0001C12.0703 13.4307 13.3258 12.0705 14.9999 12.0705C16.5693 12.0705 17.9295 13.3261 17.9295 15.0001C17.9295 16.5696 16.5693 17.9297 14.9999 17.9297Z" fill="white"/>
<path d="M19.6036 11.4427C20.1814 11.4427 20.6499 10.9743 20.6499 10.3965C20.6499 9.8186 20.1814 9.35016 19.6036 9.35016C19.0257 9.35016 18.5573 9.8186 18.5573 10.3965C18.5573 10.9743 19.0257 11.4427 19.6036 11.4427Z" fill="white"/>
<defs>
<radialGradient id="paint0_radial_64_8850" cx="0" cy="0" r="1" gradientUnits="userSpaceOnUse" gradientTransform="translate(30.6035 0.609376) scale(69.2789)">
<stop stop-color="#F9ED32"/>
<stop offset="0.36" stop-color="#EE2A7B"/>
<stop offset="0.44" stop-color="#D22A8A"/>
<stop offset="0.6" stop-color="#8B2AB2"/>
<stop offset="0.83" stop-color="#1B2AF0"/>
<stop offset="0.88" stop-color="#002AFF"/>
</radialGradient>
</defs>
</svg>
