<svg width="33" height="33" viewBox="0 0 33 33" fill="none" xmlns="http://www.w3.org/2000/svg">
<path d="M27.5 29.3333H5.5C4.49167 29.3333 3.66667 28.5083 3.66667 27.5V5.5C3.66667 4.49167 4.49167 3.66667 5.5 3.66667H14.6667C15.675 3.66667 16.5 2.84167 16.5 1.83333C16.5 0.825 15.675 0 14.6667 0H3.66667C1.63167 0 0 1.65 0 3.66667V29.3333C0 31.35 1.65 33 3.66667 33H29.3333C31.35 33 33 31.35 33 29.3333V18.3333C33 17.325 32.175 16.5 31.1667 16.5C30.1583 16.5 29.3333 17.325 29.3333 18.3333V27.5C29.3333 28.5083 28.5083 29.3333 27.5 29.3333ZM20.1667 1.83333C20.1667 2.84167 20.9917 3.66667 22 3.66667H26.7483L10.01 20.405C9.295 21.12 9.295 22.275 10.01 22.99C10.725 23.705 11.88 23.705 12.595 22.99L29.3333 6.25167V11C29.3333 12.0083 30.1583 12.8333 31.1667 12.8333C32.175 12.8333 33 12.0083 33 11V1.83333C33 0.825 32.175 0 31.1667 0H22C20.9917 0 20.1667 0.825 20.1667 1.83333Z" fill="#002053"/>
</svg>
