<svg width="18" height="19" viewBox="0 0 18 19" fill="none" xmlns="http://www.w3.org/2000/svg">
<path fill-rule="evenodd" clip-rule="evenodd" d="M8.61429 17.9792V0.00173211C8.62005 0.0017167 8.62581 0.00170898 8.63157 0.00170898C12.0349 0.00170898 14.7938 2.69068 14.7938 6.0077C14.7938 6.88211 14.6021 7.71286 14.2574 8.46223C13.3349 10.8691 11.2483 14.4798 8.62763 17.9971C8.62318 17.9911 8.61874 17.9851 8.61429 17.9792Z" fill="#EA4444"/>
<path fill-rule="evenodd" clip-rule="evenodd" d="M8.64886 17.9787V0.00124383C8.6431 0.00122842 8.63734 0.0012207 8.63158 0.0012207C5.22827 0.0012207 2.46934 2.6902 2.46934 6.00722C2.46934 6.88162 2.66106 7.71239 3.00577 8.46175C3.92831 10.8686 6.01484 14.4793 8.63552 17.9966C8.63997 17.9907 8.64442 17.9847 8.64886 17.9787Z" fill="#EA4444"/>
<ellipse cx="5.94256" cy="4.88366" rx="2.47134" ry="2.40868" fill="white"/>
<path fill-rule="evenodd" clip-rule="evenodd" d="M4.80709 4.8868C4.80312 4.29396 5.29372 3.81128 5.90195 3.80957C6.5102 3.80788 7.00724 4.2878 7.01121 4.88064C7.01519 5.47346 6.52459 5.95614 5.91635 5.95785C5.3081 5.95955 4.81107 5.47962 4.80709 4.8868Z" fill="#EA4444"/>
<ellipse cx="11.3528" cy="4.88366" rx="2.47134" ry="2.40868" fill="white"/>
<path d="M10.2841 4.8542C10.2802 4.26137 10.7708 3.77869 11.379 3.77698C11.9873 3.77529 12.4843 4.25521 12.4883 4.84805C12.4922 5.44087 12.0016 5.92355 11.3934 5.92526C10.7852 5.92696 10.2881 5.44703 10.2841 4.8542Z" fill="#EA4444"/>
<path fill-rule="evenodd" clip-rule="evenodd" d="M9.06729 9.08392L8.61945 9.96141L7.6124 8.01468L8.43446 8.01211L9.06729 9.08392ZM8.67805 8.01135L9.17382 8.87519L9.61619 8.00842L8.67805 8.01135Z" fill="white"/>
</svg>
