<svg width="42" height="42" viewBox="0 0 42 42" fill="none" xmlns="http://www.w3.org/2000/svg">
<path d="M0 29.856V2.66846C0 2.18235 0.225695 1.69623 0.677083 1.21012C1.12847 0.724012 1.59722 0.480957 2.08333 0.480957H29.1146C29.6354 0.480957 30.1215 0.715332 30.5729 1.18408C31.0243 1.65283 31.25 2.14762 31.25 2.66846V21.2101C31.25 21.6962 31.0243 22.1823 30.5729 22.6685C30.1215 23.1546 29.6354 23.3976 29.1146 23.3976H8.33333L1.35417 30.3768C1.07639 30.6546 0.78125 30.724 0.46875 30.5851C0.15625 30.4462 0 30.2032 0 29.856ZM10.4688 33.8143C9.98264 33.8143 9.50521 33.5712 9.03646 33.0851C8.56771 32.599 8.33333 32.1129 8.33333 31.6268V26.5226H34.375V8.81429H39.5833C40.0694 8.81429 40.5382 9.05735 40.9896 9.54346C41.441 10.0296 41.6667 10.533 41.6667 11.0539V40.2205C41.6667 40.5678 41.5104 40.8108 41.1979 40.9497C40.8854 41.0886 40.5903 41.0191 40.3125 40.7414L33.3854 33.8143H10.4688Z" fill="#317EF7"/>
</svg>
