<svg width="32" height="32" viewBox="0 0 32 32" fill="none" xmlns="http://www.w3.org/2000/svg">
<path d="M-6.10352e-05 16C-6.10352e-05 7.16344 7.16338 0 15.9999 0C24.8365 0 31.9999 7.16344 31.9999 16C31.9999 24.8366 24.8365 32 15.9999 32C7.16338 32 -6.10352e-05 24.8366 -6.10352e-05 16Z" fill="#317EF7"/>
<path d="M15.9999 25.75C17.0999 25.75 17.9999 24.85 17.9999 23.75H13.9999C13.9999 24.85 14.8899 25.75 15.9999 25.75ZM21.9999 19.75V14.75C21.9999 11.68 20.3599 9.11 17.4999 8.43V7.75C17.4999 6.92 16.8299 6.25 15.9999 6.25C15.1699 6.25 14.4999 6.92 14.4999 7.75V8.43C11.6299 9.11 9.99994 11.67 9.99994 14.75V19.75L7.99994 21.75V22.75H23.9999V21.75L21.9999 19.75Z" fill="white"/>
</svg>
