<svg width="30" height="30" viewBox="0 0 30 30" fill="none" xmlns="http://www.w3.org/2000/svg">
<rect width="30" height="30" rx="4.73684" fill="#E60023"/>
<path d="M15.0534 6.31592C10.2476 6.31592 6.31567 9.95964 6.31567 14.4131C6.31567 17.7532 8.50011 20.5872 11.5583 21.8017C11.5583 21.1945 11.5583 20.5872 11.6675 19.9799C11.886 19.2714 12.7597 15.5264 12.7597 15.5264C12.7597 15.5264 12.4321 15.0204 12.4321 14.2107C12.4321 12.9961 13.1966 12.0851 14.0704 12.0851C14.835 12.0851 15.2718 12.5912 15.2718 13.2997C15.2718 14.0082 14.7257 15.1216 14.5073 16.1337C14.2888 16.9434 14.9442 17.652 15.9272 17.652C17.5655 17.652 18.6577 15.7289 18.6577 13.2997C18.6577 11.4779 17.347 10.1621 15.0534 10.1621C12.4321 10.1621 10.7938 11.9839 10.7938 14.0082C10.7938 14.7167 11.0122 15.2228 11.3399 15.6277C11.4491 15.8301 11.5583 15.8301 11.4491 16.0325C11.4491 16.1337 11.3399 16.5386 11.2306 16.6398C11.1214 16.8422 11.0122 16.9434 10.7938 16.8422C9.59232 16.3362 9.04621 15.1216 9.04621 13.7046C9.04621 11.3766 11.1214 8.64385 15.2718 8.64385C18.6577 8.64385 20.8421 10.8706 20.8421 13.2997C20.8421 16.4374 18.9854 18.8665 16.1456 18.8665C15.1626 18.8665 14.2888 18.3605 13.9612 17.8544C13.9612 17.8544 13.4151 19.6762 13.3058 20.0811C13.0874 20.6884 12.7597 21.2957 12.4321 21.8017C13.1966 22.0042 14.0704 22.1054 14.9442 22.1054C19.7499 22.1054 23.6819 18.4617 23.6819 14.0082C23.7911 9.95964 19.8591 6.31592 15.0534 6.31592Z" fill="white"/>
</svg>
