<svg width="32" height="32" viewBox="0 0 32 32" fill="none" xmlns="http://www.w3.org/2000/svg">
<path d="M0 16C0 7.16344 7.16344 0 16 0C24.8366 0 32 7.16344 32 16C32 24.8366 24.8366 32 16 32C7.16344 32 0 24.8366 0 16Z" fill="#317EF7"/>
<path fill-rule="evenodd" clip-rule="evenodd" d="M15.1093 6.6499H15.9997V8.6535H15.9998V6.6499H16.8903L17.2416 8.758C18.3451 8.94586 19.3647 9.37981 20.242 10.0014L21.9817 8.75873L22.6114 9.38839L21.1946 10.8052L21.1947 10.8053L22.6115 9.38852L23.2412 10.0182L21.9985 11.7579C22.62 12.6351 23.0539 13.6546 23.2417 14.758L25.3499 15.1093V15.9998V16.8902L23.2418 17.2416C23.0539 18.3451 22.62 19.3648 21.9984 20.2421L23.2411 21.9818L22.6114 22.6115L21.1945 21.1946L21.1944 21.1947L22.6113 22.6116L21.9816 23.2413L20.2419 21.9986C19.3647 22.62 18.3452 23.0539 17.2418 23.2418L16.8905 25.3499H16V23.3463H16V25.3499H15.1095L14.7582 23.2418C13.6546 23.054 12.635 22.62 11.7577 21.9984L10.018 23.241L9.38836 22.6114L10.8051 21.1946L10.805 21.1945L9.38826 22.6112L8.7586 21.9816L10.0012 20.2419C9.37972 19.3647 8.94583 18.3452 8.75797 17.2418L6.6499 16.8904V16V16V15.1095L8.75795 14.7582C8.94581 13.6547 9.37977 12.635 10.0014 11.7577L8.75868 10.0179L9.38834 9.38825L10.8052 10.8051L10.8053 10.805L9.38846 9.38816L10.0181 8.7585L11.7579 10.0012C12.6351 9.37976 13.6546 8.9459 14.7579 8.75804L15.1093 6.6499ZM15.9999 21.3428C18.9507 21.3428 21.3427 18.9507 21.3427 15.9999C21.3427 13.0492 18.9507 10.6571 15.9999 10.6571C13.0491 10.6571 10.657 13.0492 10.657 15.9999C10.657 18.9507 13.0491 21.3428 15.9999 21.3428Z" fill="white"/>
</svg>
