<svg width="16" height="21" viewBox="0 0 16 21" fill="none" xmlns="http://www.w3.org/2000/svg">
<path d="M8 4.54462V6.33462C8 6.78462 8.54 7.00462 8.85 6.68462L11.64 3.89462C11.84 3.69462 11.84 3.38462 11.64 3.18462L8.85 0.394618C8.54 0.0846184 8 0.304618 8 0.754618V2.54462C3.58 2.54462 0 6.12462 0 10.5446C0 11.5846 0.2 12.5846 0.57 13.4946C0.84 14.1646 1.7 14.3446 2.21 13.8346C2.48 13.5646 2.59 13.1546 2.44 12.7946C2.15 12.1046 2 11.3346 2 10.5446C2 7.23462 4.69 4.54462 8 4.54462ZM13.79 7.25462C13.52 7.52462 13.41 7.94462 13.56 8.29462C13.84 8.99462 14 9.75462 14 10.5446C14 13.8546 11.31 16.5446 8 16.5446V14.7546C8 14.3046 7.46 14.0846 7.15 14.4046L4.36 17.1946C4.16 17.3946 4.16 17.7046 4.36 17.9046L7.15 20.6946C7.46 21.0046 8 20.7846 8 20.3446V18.5446C12.42 18.5446 16 14.9646 16 10.5446C16 9.50462 15.8 8.50462 15.43 7.59462C15.16 6.92462 14.3 6.74462 13.79 7.25462Z" fill="#002053"/>
</svg>
