<svg width="18" height="16" viewBox="0 0 18 16" fill="none" xmlns="http://www.w3.org/2000/svg">
<path d="M18.0001 2.62578C17.3798 2.89906 16.6709 3.08125 15.962 3.17235C16.6709 2.71688 17.2912 1.98814 17.557 1.1683C16.8481 1.62377 16.1392 1.89705 15.253 2.07923C14.6327 1.35049 13.658 0.89502 12.6832 0.89502C10.7337 0.89502 9.13863 2.53469 9.13863 4.53874C9.13863 4.81202 9.13864 5.0853 9.22725 5.35857C6.30297 5.17639 3.64454 3.7189 1.87225 1.53267C1.60641 2.07923 1.42918 2.71688 1.42918 3.35453C1.42918 4.62983 2.04948 5.72295 3.02424 6.3606C2.40394 6.3606 1.87225 6.17842 1.42918 5.90514C1.42918 7.63591 2.66978 9.18448 4.26484 9.45776C3.99899 9.54886 3.64454 9.54886 3.29009 9.54886C3.02424 9.54886 2.84701 9.54886 2.58117 9.45776C3.02424 10.9153 4.35346 12.0084 5.94852 12.0084C4.70792 13.0104 3.20147 13.557 1.5178 13.557C1.25195 13.557 0.986111 13.557 0.631653 13.4659C2.22671 14.4679 4.08761 15.1055 6.12575 15.1055C12.6832 15.1055 16.2278 9.54886 16.2278 4.72093V4.26546C16.9367 3.99218 17.557 3.35453 18.0001 2.62578Z" fill="white"/>
</svg>
