<svg width="18" height="16" viewBox="0 0 18 16" fill="none" xmlns="http://www.w3.org/2000/svg">
<path d="M18 2.62578C17.3797 2.89906 16.6708 3.08125 15.9619 3.17235C16.6708 2.71688 17.2911 1.98814 17.5569 1.1683C16.848 1.62377 16.1391 1.89705 15.253 2.07923C14.6327 1.35049 13.6579 0.89502 12.6831 0.89502C10.7336 0.89502 9.13857 2.53469 9.13857 4.53874C9.13857 4.81202 9.13858 5.0853 9.22719 5.35857C6.30291 5.17639 3.64448 3.7189 1.87219 1.53267C1.60635 2.07923 1.42912 2.71688 1.42912 3.35453C1.42912 4.62983 2.04942 5.72295 3.02418 6.3606C2.40388 6.3606 1.87219 6.17842 1.42912 5.90514C1.42912 7.63591 2.66972 9.18448 4.26478 9.45776C3.99893 9.54886 3.64448 9.54886 3.29002 9.54886C3.02418 9.54886 2.84695 9.54886 2.58111 9.45776C3.02418 10.9153 4.3534 12.0084 5.94846 12.0084C4.70786 13.0104 3.20141 13.557 1.51774 13.557C1.25189 13.557 0.98605 13.557 0.631592 13.4659C2.22665 14.4679 4.08755 15.1055 6.12568 15.1055C12.6832 15.1055 16.2277 9.54886 16.2277 4.72093V4.26546C16.9366 3.99218 17.5569 3.35453 18 2.62578Z" fill="white"/>
</svg>
