<svg width="30" height="30" viewBox="0 0 30 30" fill="none" xmlns="http://www.w3.org/2000/svg">
<rect width="30" height="30" rx="4.73684" fill="#1D9BF0"/>
<path d="M23.6841 9.62529C23.0638 9.89857 22.3549 10.0808 21.646 10.1719C22.3549 9.71639 22.9752 8.98765 23.241 8.16781C22.5321 8.62328 21.8232 8.89656 20.9371 9.07874C20.3168 8.35 19.342 7.89453 18.3672 7.89453C16.4177 7.89453 14.8227 9.53421 14.8227 11.5383C14.8227 11.8115 14.8227 12.0848 14.9113 12.3581C11.987 12.1759 9.32856 10.7184 7.55627 8.53218C7.29043 9.07874 7.1132 9.71639 7.1132 10.354C7.1132 11.6293 7.7335 12.7225 8.70826 13.3601C8.08796 13.3601 7.55627 13.1779 7.1132 12.9047C7.1132 14.6354 8.3538 16.184 9.94886 16.4573C9.68301 16.5484 9.32856 16.5484 8.97411 16.5484C8.70826 16.5484 8.53103 16.5484 8.26519 16.4573C8.70826 17.9148 10.0375 19.0079 11.6325 19.0079C10.3919 20.0099 8.88549 20.5565 7.20182 20.5565C6.93597 20.5565 6.67013 20.5565 6.31567 20.4654C7.91073 21.4674 9.77163 22.1051 11.8098 22.1051C18.3672 22.1051 21.9118 16.5484 21.9118 11.7204V11.265C22.6207 10.9917 23.241 10.354 23.6841 9.62529Z" fill="white"/>
</svg>
