<svg width="16" height="16" viewBox="0 0 16 16" fill="none" xmlns="http://www.w3.org/2000/svg">
<path d="M15.7143 8.25L14.0507 6.25714L14.2825 3.62143L11.8211 3.03571L10.5325 0.75L8.21429 1.79286L5.89611 0.75L4.60748 3.02857L2.14611 3.60714L2.37793 6.25L0.714294 8.25L2.37793 10.2429L2.14611 12.8857L4.60748 13.4714L5.89611 15.75L8.21429 14.7L10.5325 15.7429L11.8211 13.4643L14.2825 12.8786L14.0507 10.2429L15.7143 8.25ZM6.42793 11.1143L4.8052 9.4C4.53929 9.12143 4.53929 8.67143 4.8052 8.39286L4.85293 8.34286C5.11884 8.06429 5.5552 8.06429 5.82111 8.34286L6.91884 9.5L10.4302 5.81429C10.6961 5.53571 11.1325 5.53571 11.3984 5.81429L11.4461 5.86429C11.712 6.14286 11.712 6.59286 11.4461 6.87143L7.40975 11.1143C7.1302 11.3929 6.70066 11.3929 6.42793 11.1143Z" fill="#317EF7"/>
</svg>
