<svg width="19" height="18" viewBox="0 0 19 18" fill="none" xmlns="http://www.w3.org/2000/svg">
<path d="M18.771 8.83883L16.7713 6.55226L17.0499 3.52809L14.0913 2.85605L12.5424 0.233459L9.75587 1.43002L6.96937 0.233459L5.4204 2.84785L2.4618 3.51169L2.74045 6.54406L0.740723 8.83883L2.74045 11.1254L2.4618 14.1578L5.4204 14.8298L6.96937 17.4442L9.75587 16.2394L12.5424 17.436L14.0913 14.8216L17.0499 14.1496L16.7713 11.1254L18.771 8.83883ZM7.60863 12.1253L5.65808 10.1583C5.33845 9.83869 5.33845 9.32237 5.65808 9.00274L5.71545 8.94537C6.03507 8.62574 6.55959 8.62574 6.87922 8.94537L8.19871 10.2731L12.4194 6.04413C12.7391 5.7245 13.2636 5.7245 13.5832 6.04413L13.6406 6.1015C13.9602 6.42113 13.9602 6.93745 13.6406 7.25708L8.78879 12.1253C8.45277 12.4449 7.93645 12.4449 7.60863 12.1253Z" fill="#F58722"/>
</svg>
